SubSource-HROTdd_VROTd_SLENx_SANGn.ufo
<glyph name="dollar" format="2">
  <advance width="500"/>
  <unicode hex="0024"/>
  <outline>
    <contour>
      <point x="307" y="705" type="curve" smooth="yes"/>
      <point x="302" y="645"/>
      <point x="293" y="628"/>
      <point x="322" y="619" type="curve" smooth="yes"/>
      <point x="497" y="561"/>
      <point x="334" y="400"/>
      <point x="198" y="432" type="curve" smooth="yes"/>
      <point x="184" y="436"/>
      <point x="169" y="437"/>
      <point x="153" y="437" type="curve" smooth="yes"/>
      <point x="100" y="437"/>
      <point x="26" y="417"/>
      <point x="26" y="358" type="curve" smooth="yes"/>
      <point x="26" y="311"/>
      <point x="104" y="283"/>
      <point x="155" y="263" type="curve" smooth="yes"/>
      <point x="259" y="221"/>
      <point x="346" y="179"/>
      <point x="346" y="78" type="curve" smooth="yes"/>
      <point x="346" y="-40"/>
      <point x="226" y="-94"/>
      <point x="119" y="-94" type="curve" smooth="yes"/>
      <point x="97" y="-94"/>
      <point x="76" y="-91"/>
      <point x="57" y="-86" type="curve" smooth="yes"/>
      <point x="-77" y="-54"/>
      <point x="3" y="151"/>
      <point x="181" y="100" type="curve" smooth="yes"/>
      <point x="253" y="80"/>
      <point x="266" y="51"/>
      <point x="255" y="-81" type="curve" smooth="yes"/>
      <point x="249" y="-148"/>
      <point x="160" y="-141"/>
      <point x="165" y="-73" type="curve" smooth="yes"/>
      <point x="168" y="-33"/>
      <point x="179" y="8"/>
      <point x="157" y="14" type="curve" smooth="yes"/>
      <point x="137" y="19"/>
      <point x="64" y="4"/>
      <point x="81" y="0" type="curve" smooth="yes"/>
      <point x="92" y="-3"/>
      <point x="105" y="-4"/>
      <point x="119" y="-4" type="curve" smooth="yes"/>
      <point x="174" y="-4"/>
      <point x="256" y="17"/>
      <point x="256" y="78" type="curve" smooth="yes"/>
      <point x="256" y="130"/>
      <point x="175" y="158"/>
      <point x="121" y="179" type="curve" smooth="yes"/>
      <point x="18" y="221"/>
      <point x="-64" y="262"/>
      <point x="-64" y="358" type="curve" smooth="yes"/>
      <point x="-64" y="474"/>
      <point x="49" y="527"/>
      <point x="153" y="527" type="curve" smooth="yes"/>
      <point x="177" y="527"/>
      <point x="200" y="524"/>
      <point x="218" y="520" type="curve" smooth="yes"/>
      <point x="230" y="517"/>
      <point x="309" y="528"/>
      <point x="294" y="533" type="curve" smooth="yes"/>
      <point x="226" y="555"/>
      <point x="207" y="571"/>
      <point x="217" y="711" type="curve" smooth="yes"/>
      <point x="222" y="779"/>
      <point x="312" y="772"/>
    </contour>
  </outline>
</glyph>
<glyph name="parenleft" format="2">
  <advance width="452"/>
  <unicode hex="0028"/>
  <outline>
    <contour>
      <point x="305" y="-271" type="curve" smooth="yes"/>
      <point x="220" y="-278"/>
      <point x="150" y="-256"/>
      <point x="99" y="-208" type="curve" smooth="yes"/>
      <point x="13" y="-126"/>
      <point x="-51" y="5"/>
      <point x="-51" y="185" type="curve" smooth="yes"/>
      <point x="-51" y="365"/>
      <point x="13" y="496"/>
      <point x="99" y="578" type="curve" smooth="yes"/>
      <point x="144" y="621"/>
      <point x="206" y="660"/>
      <point x="281" y="696" type="curve" smooth="yes"/>
      <point x="342" y="726"/>
      <point x="381" y="645"/>
      <point x="321" y="616" type="curve" smooth="yes"/>
      <point x="256" y="584"/>
      <point x="200" y="549"/>
      <point x="161" y="512" type="curve" smooth="yes"/>
      <point x="89" y="444"/>
      <point x="39" y="335"/>
      <point x="39" y="185" type="curve" smooth="yes"/>
      <point x="39" y="35"/>
      <point x="89" y="-74"/>
      <point x="161" y="-142" type="curve" smooth="yes"/>
      <point x="194" y="-174"/>
      <point x="242" y="-186"/>
      <point x="297" y="-181" type="curve" smooth="yes"/>
      <point x="364" y="-175"/>
      <point x="372" y="-265"/>
    </contour>
  </outline>
</glyph>
<glyph name="hyphen" format="2">
  <advance width="340"/>
  <unicode hex="002D"/>
  <outline>
    <contour>
      <point x="179" y="165" type="curve" smooth="yes"/>
      <point x="34" y="118"/>
      <point x="-46" y="143"/>
      <point x="-66" y="190" type="curve" smooth="yes"/>
      <point x="-93" y="252"/>
      <point x="-11" y="288"/>
      <point x="16" y="226" type="curve" smooth="yes"/>
      <point x="18" y="222"/>
      <point x="139" y="247"/>
      <point x="151" y="251" type="curve" smooth="yes"/>
      <point x="215" y="272"/>
      <point x="243" y="186"/>
    </contour>
  </outline>
</glyph>
<glyph name="slash" format="2">
  <advance width="490"/>
  <unicode hex="002F"/>
  <outline>
    <contour>
      <point x="326" y="617" type="curve" smooth="yes"/>
      <point x="285" y="548"/>
      <point x="272" y="509"/>
      <point x="259" y="468" type="curve" smooth="yes"/>
      <point x="199" y="287"/>
      <point x="135" y="95"/>
      <point x="71" y="-103" type="curve" smooth="yes"/>
      <point x="69" y="-107"/>
      <point x="44" y="-183"/>
      <point x="45" y="-184" type="curve" smooth="yes"/>
      <point x="84" y="-239"/>
      <point x="10" y="-291"/>
      <point x="-29" y="-236" type="curve" smooth="yes"/>
      <point x="-52" y="-202"/>
      <point x="-43" y="-161"/>
      <point x="-15" y="-75" type="curve" smooth="yes"/>
      <point x="47" y="115"/>
      <point x="111" y="307"/>
      <point x="173" y="496" type="curve" smooth="yes"/>
      <point x="188" y="541"/>
      <point x="203" y="588"/>
      <point x="250" y="663" type="curve" smooth="yes"/>
      <point x="285" y="721"/>
      <point x="362" y="674"/>
    </contour>
  </outline>
</glyph>
<glyph name="one" format="2">
  <advance width="344"/>
  <unicode hex="0031"/>
  <outline>
    <contour>
      <point x="41" y="615" type="curve" smooth="yes"/>
      <point x="87" y="619"/>
      <point x="134" y="611"/>
      <point x="151" y="569" type="curve" smooth="yes"/>
      <point x="165" y="536"/>
      <point x="144" y="436"/>
      <point x="144" y="350" type="curve" smooth="yes"/>
      <point x="144" y="201"/>
      <point x="144" y="135"/>
      <point x="144" y="45" type="curve" smooth="yes"/>
      <point x="144" y="38"/>
      <point x="146" y="-8"/>
      <point x="150" y="-10" type="curve" smooth="yes"/>
      <point x="210" y="-41"/>
      <point x="168" y="-121"/>
      <point x="108" y="-90" type="curve" smooth="yes"/>
      <point x="72" y="-71"/>
      <point x="54" y="-32"/>
      <point x="54" y="45" type="curve" smooth="yes"/>
      <point x="54" y="179"/>
      <point x="54" y="250"/>
      <point x="54" y="350" type="curve" smooth="yes"/>
      <point x="54" y="524"/>
      <point x="74" y="518"/>
      <point x="67" y="535" type="curve" smooth="yes"/>
      <point x="67" y="537"/>
      <point x="51" y="525"/>
      <point x="49" y="525" type="curve" smooth="yes"/>
      <point x="-18" y="519"/>
      <point x="-26" y="609"/>
    </contour>
  </outline>
</glyph>
<glyph name="six" format="2">
  <advance width="534"/>
  <unicode hex="0036"/>
  <outline>
    <contour>
      <point x="71" y="310" type="curve" smooth="yes"/>
      <point x="78" y="338"/>
      <point x="124" y="387"/>
      <point x="220" y="369" type="curve" smooth="yes"/>
      <point x="326" y="350"/>
      <point x="381" y="231"/>
      <point x="381" y="101" type="curve" smooth="yes"/>
      <point x="381" y="-29"/>
      <point x="292" y="-128"/>
      <point x="157" y="-128" type="curve" smooth="yes"/>
      <point x="42" y="-128"/>
      <point x="-80" y="-41"/>
      <point x="-80" y="194" type="curve" smooth="yes"/>
      <point x="-80" y="459"/>
      <point x="50" y="557"/>
      <point x="191" y="567" type="curve" smooth="yes"/>
      <point x="231" y="570"/>
      <point x="281" y="573"/>
      <point x="334" y="575" type="curve" smooth="yes"/>
      <point x="402" y="578"/>
      <point x="405" y="488"/>
      <point x="338" y="485" type="curve" smooth="yes"/>
      <point x="285" y="483"/>
      <point x="237" y="480"/>
      <point x="197" y="477" type="curve" smooth="yes"/>
      <point x="90" y="469"/>
      <point x="10" y="395"/>
      <point x="10" y="194" type="curve" smooth="yes"/>
      <point x="10" y="30"/>
      <point x="77" y="-38"/>
      <point x="157" y="-38" type="curve" smooth="yes"/>
      <point x="242" y="-38"/>
      <point x="291" y="19"/>
      <point x="291" y="101" type="curve" smooth="yes"/>
      <point x="291" y="176"/>
      <point x="265" y="270"/>
      <point x="204" y="281" type="curve" smooth="yes"/>
      <point x="200" y="282"/>
      <point x="159" y="289"/>
      <point x="159" y="288" type="curve" smooth="yes"/>
      <point x="142" y="223"/>
      <point x="55" y="244"/>
    </contour>
  </outline>
</glyph>
<glyph name="semicolon" format="2">
  <advance width="279"/>
  <unicode hex="003B"/>
  <outline>
    <contour>
      <point x="18" y="235" type="curve" smooth="yes"/>
      <point x="-66" y="248"/>
      <point x="-66" y="356"/>
      <point x="18" y="369" type="curve" smooth="yes"/>
      <point x="85" y="378"/>
      <point x="98" y="289"/>
      <point x="32" y="279" type="curve" smooth="yes"/>
      <point x="29" y="279"/>
      <point x="29" y="325"/>
      <point x="32" y="325" type="curve" smooth="yes"/>
      <point x="98" y="315"/>
      <point x="85" y="226"/>
    </contour>
    <contour>
      <point x="-44" y="-211" type="curve" smooth="yes"/>
      <point x="-19" y="-169"/>
      <point x="5" y="-96"/>
      <point x="-21" y="-72" type="curve" smooth="yes"/>
      <point x="-71" y="-27"/>
      <point x="-11" y="40"/>
      <point x="39" y="-6" type="curve" smooth="yes"/>
      <point x="97" y="-58"/>
      <point x="90" y="-160"/>
      <point x="34" y="-257" type="curve" smooth="yes"/>
      <point x="0" y="-315"/>
      <point x="-78" y="-270"/>
    </contour>
  </outline>
</glyph>
<glyph name="A" format="2">
  <advance width="651"/>
  <unicode hex="0041"/>
  <outline>
    <contour>
      <point x="-64" y="-78" type="curve" smooth="yes"/>
      <point x="-72" y="-52"/>
      <point x="-74" y="-25"/>
      <point x="-59" y="24" type="curve" smooth="yes"/>
      <point x="-41" y="83"/>
      <point x="10" y="135"/>
      <point x="88" y="136" type="curve" smooth="yes"/>
      <point x="135" y="137"/>
      <point x="164" y="137"/>
      <point x="216" y="137" type="curve" smooth="yes"/>
      <point x="222" y="137"/>
      <point x="347" y="173"/>
      <point x="342" y="173" type="curve" smooth="yes"/>
      <point x="297" y="173"/>
      <point x="283" y="173"/>
      <point x="266" y="173" type="curve" smooth="yes"/>
      <point x="129" y="173"/>
      <point x="51" y="175"/>
      <point x="53" y="262" type="curve" smooth="yes"/>
      <point x="53" y="321"/>
      <point x="139" y="464"/>
      <point x="158" y="521" type="curve" smooth="yes"/>
      <point x="206" y="663"/>
      <point x="257" y="615"/>
      <point x="300" y="473" type="curve" smooth="yes"/>
      <point x="339" y="349"/>
      <point x="403" y="162"/>
      <point x="445" y="54" type="curve" smooth="yes"/>
      <point x="450" y="41"/>
      <point x="467" y="-17"/>
      <point x="482" y="-26" type="curve" smooth="yes"/>
      <point x="541" y="-59"/>
      <point x="497" y="-137"/>
      <point x="438" y="-104" type="curve" smooth="yes"/>
      <point x="388" y="-76"/>
      <point x="379" y="-23"/>
      <point x="361" y="22" type="curve" smooth="yes"/>
      <point x="319" y="132"/>
      <point x="253" y="321"/>
      <point x="214" y="447" type="curve" smooth="yes"/>
      <point x="212" y="454"/>
      <point x="246" y="499"/>
      <point x="244" y="493" type="curve" smooth="yes"/>
      <point x="213" y="402"/>
      <point x="143" y="299"/>
      <point x="143" y="260" type="curve" smooth="yes"/>
      <point x="143" y="256"/>
      <point x="260" y="263"/>
      <point x="266" y="263" type="curve" smooth="yes"/>
      <point x="292" y="263"/>
      <point x="312" y="263"/>
      <point x="342" y="263" type="curve" smooth="yes"/>
      <point x="484" y="263"/>
      <point x="367" y="47"/>
      <point x="216" y="47" type="curve" smooth="yes"/>
      <point x="164" y="47"/>
      <point x="137" y="47"/>
      <point x="90" y="46" type="curve" smooth="yes"/>
      <point x="56" y="45"/>
      <point x="35" y="23"/>
      <point x="27" y="-2" type="curve" smooth="yes"/>
      <point x="20" y="-26"/>
      <point x="18" y="-39"/>
      <point x="22" y="-52" type="curve" smooth="yes"/>
      <point x="41" y="-117"/>
      <point x="-45" y="-143"/>
    </contour>
  </outline>
</glyph>
<glyph name="D" format="2">
  <advance width="660"/>
  <unicode hex="0044"/>
  <outline>
    <contour>
      <point x="15" y="-85" type="curve" smooth="yes"/>
      <point x="-13" y="-71"/>
      <point x="-40" y="-53"/>
      <point x="-40" y="77" type="curve" smooth="yes"/>
      <point x="-40" y="199"/>
      <point x="-40" y="294"/>
      <point x="-40" y="376" type="curve" smooth="yes"/>
      <point x="-40" y="526"/>
      <point x="52" y="617"/>
      <point x="110" y="617" type="curve" smooth="yes"/>
      <point x="180" y="617"/>
      <point x="188" y="572"/>
      <point x="217" y="552" type="curve" smooth="yes"/>
      <point x="333" y="474"/>
      <point x="490" y="411"/>
      <point x="490" y="216" type="curve" smooth="yes"/>
      <point x="490" y="14"/>
      <point x="348" y="-140"/>
      <point x="178" y="-120" type="curve" smooth="yes"/>
      <point x="138" y="-115"/>
      <point x="110" y="-95"/>
      <point x="95" y="-66" type="curve" smooth="yes"/>
      <point x="64" y="-6"/>
      <point x="143" y="36"/>
      <point x="175" y="-24" type="curve" smooth="yes"/>
      <point x="177" y="-28"/>
      <point x="183" y="-30"/>
      <point x="188" y="-30" type="curve" smooth="yes"/>
      <point x="308" y="-44"/>
      <point x="400" y="74"/>
      <point x="400" y="216" type="curve" smooth="yes"/>
      <point x="400" y="362"/>
      <point x="254" y="419"/>
      <point x="167" y="478" type="curve" smooth="yes"/>
      <point x="96" y="526"/>
      <point x="138" y="527"/>
      <point x="110" y="527" type="curve" smooth="yes"/>
      <point x="89" y="527"/>
      <point x="50" y="431"/>
      <point x="50" y="376" type="curve" smooth="yes"/>
      <point x="50" y="254"/>
      <point x="50" y="159"/>
      <point x="50" y="77" type="curve" smooth="yes"/>
      <point x="50" y="64"/>
      <point x="52" y="-3"/>
      <point x="55" y="-5" type="curve" smooth="yes"/>
      <point x="115" y="-35"/>
      <point x="75" y="-115"/>
    </contour>
  </outline>
</glyph>
<glyph name="G" format="2">
  <advance width="653"/>
  <unicode hex="0047"/>
  <outline>
    <contour>
      <point x="432" y="465" type="curve" smooth="yes"/>
      <point x="348" y="470"/>
      <point x="297" y="481"/>
      <point x="249" y="481" type="curve" smooth="yes"/>
      <point x="103" y="479"/>
      <point x="15" y="365"/>
      <point x="15" y="221" type="curve" smooth="yes"/>
      <point x="15" y="75"/>
      <point x="96" y="-40"/>
      <point x="241" y="-40" type="curve" smooth="yes"/>
      <point x="317" y="-40"/>
      <point x="418" y="23"/>
      <point x="440" y="64" type="curve" smooth="yes"/>
      <point x="462" y="108"/>
      <point x="466" y="140"/>
      <point x="459" y="187" type="curve" smooth="yes"/>
      <point x="458" y="191"/>
      <point x="419" y="185"/>
      <point x="416" y="185" type="curve" smooth="yes"/>
      <point x="367" y="185"/>
      <point x="320" y="185"/>
      <point x="297" y="185" type="curve" smooth="yes"/>
      <point x="230" y="185"/>
      <point x="230" y="275"/>
      <point x="297" y="275" type="curve" smooth="yes"/>
      <point x="331" y="275"/>
      <point x="383" y="275"/>
      <point x="416" y="275" type="curve" smooth="yes"/>
      <point x="478" y="275"/>
      <point x="534" y="284"/>
      <point x="547" y="201" type="curve" smooth="yes"/>
      <point x="558" y="136"/>
      <point x="552" y="84"/>
      <point x="520" y="22" type="curve" smooth="yes"/>
      <point x="486" y="-43"/>
      <point x="359" y="-130"/>
      <point x="241" y="-130" type="curve" smooth="yes"/>
      <point x="46" y="-130"/>
      <point x="-75" y="25"/>
      <point x="-75" y="221" type="curve" smooth="yes"/>
      <point x="-75" y="414"/>
      <point x="52" y="569"/>
      <point x="249" y="571" type="curve" smooth="yes"/>
      <point x="301" y="571"/>
      <point x="362" y="560"/>
      <point x="438" y="555" type="curve" smooth="yes"/>
      <point x="505" y="551"/>
      <point x="500" y="461"/>
    </contour>
  </outline>
</glyph>
<glyph name="K" format="2">
  <advance width="591"/>
  <unicode hex="004B"/>
  <outline>
    <contour>
      <point x="68" y="527" type="curve" smooth="yes"/>
      <point x="50" y="468"/>
      <point x="50" y="428"/>
      <point x="50" y="388" type="curve" smooth="yes"/>
      <point x="50" y="241"/>
      <point x="50" y="125"/>
      <point x="50" y="26" type="curve" smooth="yes"/>
      <point x="50" y="23"/>
      <point x="51" y="-15"/>
      <point x="53" y="-16" type="curve" smooth="yes"/>
      <point x="111" y="-50"/>
      <point x="66" y="-128"/>
      <point x="7" y="-94" type="curve" smooth="yes"/>
      <point x="-25" y="-75"/>
      <point x="-40" y="-34"/>
      <point x="-40" y="26" type="curve" smooth="yes"/>
      <point x="-40" y="173"/>
      <point x="-40" y="289"/>
      <point x="-40" y="388" type="curve" smooth="yes"/>
      <point x="-40" y="436"/>
      <point x="-40" y="484"/>
      <point x="-18" y="553" type="curve" smooth="yes"/>
      <point x="2" y="618"/>
      <point x="88" y="591"/>
    </contour>
    <contour>
      <point x="438" y="507" type="curve" smooth="yes"/>
      <point x="376" y="449"/>
      <point x="333" y="407"/>
      <point x="294" y="375" type="curve" smooth="yes"/>
      <point x="249" y="337"/>
      <point x="195" y="292"/>
      <point x="182" y="285" type="curve" smooth="yes"/>
      <point x="178" y="283"/>
      <point x="220" y="229"/>
      <point x="222" y="222" type="curve" smooth="yes"/>
      <point x="248" y="153"/>
      <point x="345" y="22"/>
      <point x="423" y="-46" type="curve" smooth="yes"/>
      <point x="473" y="-90"/>
      <point x="414" y="-158"/>
      <point x="363" y="-114" type="curve" smooth="yes"/>
      <point x="272" y="-34"/>
      <point x="168" y="109"/>
      <point x="138" y="192" type="curve" smooth="yes"/>
      <point x="86" y="335"/>
      <point x="103" y="346"/>
      <point x="138" y="363" type="curve" smooth="yes"/>
      <point x="143" y="366"/>
      <point x="220" y="430"/>
      <point x="236" y="443" type="curve" smooth="yes"/>
      <point x="273" y="475"/>
      <point x="316" y="515"/>
      <point x="376" y="573" type="curve" smooth="yes"/>
      <point x="425" y="619"/>
      <point x="487" y="554"/>
    </contour>
  </outline>
</glyph>
<glyph name="M" format="2">
  <advance width="808"/>
  <unicode hex="004D"/>
  <outline>
    <contour>
      <point x="562" y="-83" type="curve" smooth="yes"/>
      <point x="531" y="-54"/>
      <point x="528" y="-13"/>
      <point x="528" y="47" type="curve" smooth="yes"/>
      <point x="528" y="117"/>
      <point x="564" y="212"/>
      <point x="597" y="319" type="curve" smooth="yes"/>
      <point x="621" y="395"/>
      <point x="629" y="443"/>
      <point x="639" y="534" type="curve" smooth="yes"/>
      <point x="648" y="613"/>
      <point x="536" y="463"/>
      <point x="509" y="391" type="curve" smooth="yes"/>
      <point x="487" y="334"/>
      <point x="464" y="274"/>
      <point x="442" y="212" type="curve" smooth="yes"/>
      <point x="418" y="145"/>
      <point x="405" y="91"/>
      <point x="393" y="38" type="curve" smooth="yes"/>
      <point x="335" y="-217"/>
      <point x="305" y="69"/>
      <point x="295" y="120" type="curve" smooth="yes"/>
      <point x="280" y="190"/>
      <point x="263" y="262"/>
      <point x="241" y="332" type="curve" smooth="yes"/>
      <point x="221" y="395"/>
      <point x="201" y="455"/>
      <point x="179" y="512" type="curve" smooth="yes"/>
      <point x="139" y="616"/>
      <point x="49" y="507"/>
      <point x="49" y="406" type="curve" smooth="yes"/>
      <point x="49" y="334"/>
      <point x="49" y="276"/>
      <point x="49" y="227" type="curve" smooth="yes"/>
      <point x="49" y="161"/>
      <point x="49" y="96"/>
      <point x="50" y="33" type="curve" smooth="yes"/>
      <point x="50" y="14"/>
      <point x="53" y="-10"/>
      <point x="62" y="-18" type="curve" smooth="yes"/>
      <point x="114" y="-61"/>
      <point x="55" y="-130"/>
      <point x="4" y="-86" type="curve" smooth="yes"/>
      <point x="-25" y="-62"/>
      <point x="-40" y="-22"/>
      <point x="-40" y="31" type="curve"/>
      <point x="-41" y="96"/>
      <point x="-41" y="161"/>
      <point x="-41" y="227" type="curve" smooth="yes"/>
      <point x="-41" y="300"/>
      <point x="-41" y="358"/>
      <point x="-41" y="406" type="curve" smooth="yes"/>
      <point x="-41" y="610"/>
      <point x="184" y="753"/>
      <point x="263" y="544" type="curve" smooth="yes"/>
      <point x="285" y="485"/>
      <point x="307" y="423"/>
      <point x="327" y="358" type="curve" smooth="yes"/>
      <point x="349" y="286"/>
      <point x="368" y="212"/>
      <point x="383" y="138" type="curve" smooth="yes"/>
      <point x="459" y="-228"/>
      <point x="297" y="24"/>
      <point x="305" y="60" type="curve" smooth="yes"/>
      <point x="319" y="115"/>
      <point x="332" y="173"/>
      <point x="358" y="242" type="curve" smooth="yes"/>
      <point x="380" y="304"/>
      <point x="403" y="366"/>
      <point x="425" y="423" type="curve" smooth="yes"/>
      <point x="507" y="643"/>
      <point x="756" y="765"/>
      <point x="729" y="524" type="curve" smooth="yes"/>
      <point x="717" y="427"/>
      <point x="709" y="373"/>
      <point x="683" y="291" type="curve" smooth="yes"/>
      <point x="657" y="208"/>
      <point x="618" y="102"/>
      <point x="618" y="47" type="curve" smooth="yes"/>
      <point x="618" y="35"/>
      <point x="618" y="-12"/>
      <point x="624" y="-17" type="curve" smooth="yes"/>
      <point x="673" y="-64"/>
      <point x="611" y="-129"/>
    </contour>
  </outline>
</glyph>
<glyph name="V" format="2">
  <advance width="620"/>
  <unicode hex="0056"/>
  <outline>
    <contour>
      <point x="488" y="519" type="curve" smooth="yes"/>
      <point x="441" y="433"/>
      <point x="413" y="367"/>
      <point x="408" y="330" type="curve" smooth="yes"/>
      <point x="401" y="277"/>
      <point x="402" y="201"/>
      <point x="384" y="113" type="curve" smooth="yes"/>
      <point x="349" y="-57"/>
      <point x="164" y="-215"/>
      <point x="84" y="10" type="curve" smooth="yes"/>
      <point x="42" y="129"/>
      <point x="4" y="234"/>
      <point x="-31" y="332" type="curve" smooth="yes"/>
      <point x="-51" y="390"/>
      <point x="-71" y="460"/>
      <point x="-73" y="539" type="curve" smooth="yes"/>
      <point x="-75" y="606"/>
      <point x="15" y="609"/>
      <point x="17" y="541" type="curve" smooth="yes"/>
      <point x="19" y="474"/>
      <point x="37" y="412"/>
      <point x="55" y="362" type="curve" smooth="yes"/>
      <point x="90" y="261"/>
      <point x="128" y="155"/>
      <point x="168" y="40" type="curve" smooth="yes"/>
      <point x="208" y="-72"/>
      <point x="278" y="47"/>
      <point x="296" y="131" type="curve" smooth="yes"/>
      <point x="312" y="213"/>
      <point x="311" y="285"/>
      <point x="318" y="342" type="curve" smooth="yes"/>
      <point x="325" y="388"/>
      <point x="351" y="456"/>
      <point x="408" y="561" type="curve" smooth="yes"/>
      <point x="441" y="621"/>
      <point x="520" y="578"/>
    </contour>
  </outline>
</glyph>
<glyph name="X" format="2">
  <advance width="617"/>
  <unicode hex="0058"/>
  <outline>
    <contour>
      <point x="57" y="553" type="curve" smooth="yes"/>
      <point x="59" y="509"/>
      <point x="71" y="473"/>
      <point x="90" y="446" type="curve" smooth="yes"/>
      <point x="129" y="391"/>
      <point x="207" y="350"/>
      <point x="256" y="282" type="curve" smooth="yes"/>
      <point x="306" y="211"/>
      <point x="319" y="126"/>
      <point x="360" y="68" type="curve" smooth="yes"/>
      <point x="388" y="29"/>
      <point x="417" y="-13"/>
      <point x="446" y="-54" type="curve" smooth="yes"/>
      <point x="486" y="-108"/>
      <point x="413" y="-161"/>
      <point x="374" y="-106" type="curve" smooth="yes"/>
      <point x="345" y="-67"/>
      <point x="316" y="-25"/>
      <point x="286" y="16" type="curve" smooth="yes"/>
      <point x="237" y="86"/>
      <point x="224" y="171"/>
      <point x="182" y="230" type="curve" smooth="yes"/>
      <point x="143" y="286"/>
      <point x="65" y="326"/>
      <point x="16" y="394" type="curve" smooth="yes"/>
      <point x="-11" y="433"/>
      <point x="-29" y="485"/>
      <point x="-33" y="547" type="curve" smooth="yes"/>
      <point x="-37" y="615"/>
      <point x="53" y="620"/>
    </contour>
    <contour>
      <point x="438" y="494" type="curve" smooth="yes"/>
      <point x="414" y="460"/>
      <point x="390" y="426"/>
      <point x="366" y="394" type="curve" smooth="yes"/>
      <point x="321" y="330"/>
      <point x="211" y="202"/>
      <point x="165" y="139" type="curve" smooth="yes"/>
      <point x="123" y="81"/>
      <point x="141" y="82"/>
      <point x="92" y="16" type="curve" smooth="yes"/>
      <point x="63" y="-26"/>
      <point x="33" y="-68"/>
      <point x="4" y="-106" type="curve" smooth="yes"/>
      <point x="-35" y="-161"/>
      <point x="-108" y="-108"/>
      <point x="-68" y="-54" type="curve" smooth="yes"/>
      <point x="-39" y="-12"/>
      <point x="-9" y="30"/>
      <point x="20" y="68" type="curve" smooth="yes"/>
      <point x="61" y="126"/>
      <point x="43" y="125"/>
      <point x="93" y="193" type="curve" smooth="yes"/>
      <point x="139" y="256"/>
      <point x="249" y="384"/>
      <point x="294" y="446" type="curve" smooth="yes"/>
      <point x="318" y="480"/>
      <point x="342" y="514"/>
      <point x="366" y="546" type="curve" smooth="yes"/>
      <point x="405" y="601"/>
      <point x="478" y="548"/>
    </contour>
  </outline>
</glyph>
<glyph name="bracketleft" format="2">
  <advance width="430"/>
  <unicode hex="005B"/>
  <outline>
    <contour>
      <point x="188" y="578" type="curve" smooth="yes"/>
      <point x="141" y="648"/>
      <point x="83" y="544"/>
      <point x="83" y="439" type="curve" smooth="yes"/>
      <point x="83" y="176"/>
      <point x="83" y="100"/>
      <point x="83" y="-77" type="curve" smooth="yes"/>
      <point x="83" y="-202"/>
      <point x="175" y="-66"/>
      <point x="263" y="-209" type="curve" smooth="yes"/>
      <point x="299" y="-267"/>
      <point x="222" y="-314"/>
      <point x="187" y="-257" type="curve" smooth="yes"/>
      <point x="134" y="-171"/>
      <point x="-7" y="-287"/>
      <point x="-7" y="-77" type="curve" smooth="yes"/>
      <point x="-7" y="186"/>
      <point x="-7" y="262"/>
      <point x="-7" y="439" type="curve" smooth="yes"/>
      <point x="-7" y="659"/>
      <point x="164" y="774"/>
      <point x="262" y="628" type="curve" smooth="yes"/>
      <point x="300" y="572"/>
      <point x="225" y="522"/>
    </contour>
  </outline>
</glyph>
<glyph name="underscore" format="2">
  <advance width="535"/>
  <unicode hex="005F"/>
  <outline>
    <contour>
      <point x="417" y="-243" type="curve" smooth="yes"/>
      <point x="199" y="-243"/>
      <point x="24" y="-243"/>
      <point x="-122" y="-243" type="curve" smooth="yes"/>
      <point x="-189" y="-243"/>
      <point x="-189" y="-153"/>
      <point x="-122" y="-153" type="curve" smooth="yes"/>
      <point x="96" y="-153"/>
      <point x="271" y="-153"/>
      <point x="417" y="-153" type="curve" smooth="yes"/>
      <point x="485" y="-153"/>
      <point x="485" y="-243"/>
    </contour>
  </outline>
</glyph>
<glyph name="m" format="2">
  <advance width="828"/>
  <unicode hex="006D"/>
  <outline>
    <contour>
      <point x="62" y="350" type="curve" smooth="yes"/>
      <point x="35" y="288"/>
      <point x="36" y="254"/>
      <point x="36" y="218" type="curve" smooth="yes"/>
      <point x="36" y="186"/>
      <point x="36" y="64"/>
      <point x="36" y="8" type="curve" smooth="yes"/>
      <point x="36" y="-1"/>
      <point x="66" y="121"/>
      <point x="66" y="130" type="curve" smooth="yes"/>
      <point x="66" y="188"/>
      <point x="66" y="232"/>
      <point x="66" y="278" type="curve" smooth="yes"/>
      <point x="66" y="447"/>
      <point x="77" y="425"/>
      <point x="181" y="385" type="curve" smooth="yes"/>
      <point x="249" y="359"/>
      <point x="343" y="319"/>
      <point x="343" y="183" type="curve" smooth="yes"/>
      <point x="343" y="137"/>
      <point x="343" y="87"/>
      <point x="343" y="55" type="curve" smooth="yes"/>
      <point x="343" y="3"/>
      <point x="373" y="123"/>
      <point x="373" y="175" type="curve" smooth="yes"/>
      <point x="373" y="223"/>
      <point x="373" y="239"/>
      <point x="373" y="278" type="curve" smooth="yes"/>
      <point x="373" y="447"/>
      <point x="384" y="425"/>
      <point x="488" y="385" type="curve" smooth="yes"/>
      <point x="556" y="359"/>
      <point x="650" y="319"/>
      <point x="650" y="183" type="curve" smooth="yes"/>
      <point x="650" y="137"/>
      <point x="650" y="87"/>
      <point x="650" y="55" type="curve" smooth="yes"/>
      <point x="650" y="48"/>
      <point x="651" y="-7"/>
      <point x="655" y="-10" type="curve" smooth="yes"/>
      <point x="715" y="-40"/>
      <point x="675" y="-120"/>
      <point x="615" y="-90" type="curve" smooth="yes"/>
      <point x="567" y="-66"/>
      <point x="560" y="-17"/>
      <point x="560" y="55" type="curve" smooth="yes"/>
      <point x="560" y="103"/>
      <point x="560" y="152"/>
      <point x="560" y="183" type="curve" smooth="yes"/>
      <point x="560" y="268"/>
      <point x="498" y="285"/>
      <point x="456" y="301" type="curve" smooth="yes"/>
      <point x="450" y="303"/>
      <point x="463" y="287"/>
      <point x="463" y="278" type="curve" smooth="yes"/>
      <point x="463" y="220"/>
      <point x="463" y="207"/>
      <point x="463" y="175" type="curve" smooth="yes"/>
      <point x="463" y="-71"/>
      <point x="253" y="-189"/>
      <point x="253" y="55" type="curve" smooth="yes"/>
      <point x="253" y="103"/>
      <point x="253" y="152"/>
      <point x="253" y="183" type="curve" smooth="yes"/>
      <point x="253" y="268"/>
      <point x="191" y="285"/>
      <point x="149" y="301" type="curve" smooth="yes"/>
      <point x="143" y="303"/>
      <point x="156" y="287"/>
      <point x="156" y="278" type="curve" smooth="yes"/>
      <point x="156" y="210"/>
      <point x="156" y="169"/>
      <point x="156" y="130" type="curve" smooth="yes"/>
      <point x="156" y="-58"/>
      <point x="-54" y="-180"/>
      <point x="-54" y="8" type="curve" smooth="yes"/>
      <point x="-54" y="92"/>
      <point x="-54" y="197"/>
      <point x="-54" y="218" type="curve" smooth="yes"/>
      <point x="-54" y="262"/>
      <point x="-53" y="308"/>
      <point x="-20" y="386" type="curve" smooth="yes"/>
      <point x="6" y="448"/>
      <point x="89" y="412"/>
    </contour>
  </outline>
</glyph>
<glyph name="n" format="2">
  <advance width="568"/>
  <unicode hex="006E"/>
  <outline>
    <contour>
      <point x="356" y="-90" type="curve" smooth="yes"/>
      <point x="308" y="-66"/>
      <point x="301" y="-17"/>
      <point x="301" y="55" type="curve" smooth="yes"/>
      <point x="301" y="103"/>
      <point x="301" y="142"/>
      <point x="301" y="173" type="curve" smooth="yes"/>
      <point x="301" y="252"/>
      <point x="200" y="279"/>
      <point x="164" y="307" type="curve" smooth="yes"/>
      <point x="153" y="315"/>
      <point x="156" y="280"/>
      <point x="156" y="258" type="curve" smooth="yes"/>
      <point x="156" y="190"/>
      <point x="156" y="169"/>
      <point x="156" y="130" type="curve" smooth="yes"/>
      <point x="156" y="-58"/>
      <point x="-54" y="-178"/>
      <point x="-54" y="10" type="curve" smooth="yes"/>
      <point x="-54" y="94"/>
      <point x="-54" y="197"/>
      <point x="-54" y="218" type="curve" smooth="yes"/>
      <point x="-54" y="262"/>
      <point x="-53" y="308"/>
      <point x="-20" y="386" type="curve" smooth="yes"/>
      <point x="6" y="448"/>
      <point x="89" y="412"/>
      <point x="62" y="350" type="curve" smooth="yes"/>
      <point x="35" y="288"/>
      <point x="36" y="254"/>
      <point x="36" y="218" type="curve" smooth="yes"/>
      <point x="36" y="186"/>
      <point x="36" y="66"/>
      <point x="36" y="10" type="curve" smooth="yes"/>
      <point x="36" y="1"/>
      <point x="66" y="121"/>
      <point x="66" y="130" type="curve" smooth="yes"/>
      <point x="66" y="188"/>
      <point x="66" y="212"/>
      <point x="66" y="258" type="curve" smooth="yes"/>
      <point x="66" y="440"/>
      <point x="126" y="449"/>
      <point x="218" y="379" type="curve" smooth="yes"/>
      <point x="284" y="328"/>
      <point x="391" y="313"/>
      <point x="391" y="173" type="curve" smooth="yes"/>
      <point x="391" y="127"/>
      <point x="391" y="87"/>
      <point x="391" y="55" type="curve" smooth="yes"/>
      <point x="391" y="48"/>
      <point x="392" y="-7"/>
      <point x="396" y="-10" type="curve" smooth="yes"/>
      <point x="456" y="-40"/>
      <point x="416" y="-120"/>
    </contour>
  </outline>
</glyph>
<glyph name="y" format="2">
  <advance width="488"/>
  <unicode hex="0079"/>
  <outline>
    <contour>
      <point x="122" y="-106" type="curve" smooth="yes"/>
      <point x="136" y="-76"/>
      <point x="151" y="-42"/>
      <point x="165" y="-11" type="curve" smooth="yes"/>
      <point x="173" y="7"/>
      <point x="181" y="26"/>
      <point x="188" y="41" type="curve" smooth="yes"/>
      <point x="190" y="45"/>
      <point x="79" y="79"/>
      <point x="71" y="82" type="curve" smooth="yes"/>
      <point x="-5" y="114"/>
      <point x="-49" y="218"/>
      <point x="-97" y="319" type="curve" smooth="yes"/>
      <point x="-125" y="380"/>
      <point x="-44" y="418"/>
      <point x="-15" y="357" type="curve" smooth="yes"/>
      <point x="12" y="299"/>
      <point x="61" y="184"/>
      <point x="105" y="166" type="curve" smooth="yes"/>
      <point x="270" y="98"/>
      <point x="309" y="89"/>
      <point x="270" y="3" type="curve" smooth="yes"/>
      <point x="263" y="-12"/>
      <point x="255" y="-29"/>
      <point x="247" y="-49" type="curve" smooth="yes"/>
      <point x="233" y="-80"/>
      <point x="218" y="-114"/>
      <point x="204" y="-144" type="curve" smooth="yes"/>
      <point x="175" y="-205"/>
      <point x="94" y="-167"/>
    </contour>
    <contour>
      <point x="363" y="335" type="curve" smooth="yes"/>
      <point x="324" y="270"/>
      <point x="298" y="212"/>
      <point x="283" y="179" type="curve" smooth="yes"/>
      <point x="240" y="81"/>
      <point x="178" y="-54"/>
      <point x="150" y="-116" type="curve" smooth="yes"/>
      <point x="142" y="-135"/>
      <point x="133" y="-153"/>
      <point x="125" y="-171" type="curve" smooth="yes"/>
      <point x="111" y="-203"/>
      <point x="98" y="-234"/>
      <point x="84" y="-264" type="curve" smooth="yes"/>
      <point x="55" y="-325"/>
      <point x="-26" y="-287"/>
      <point x="2" y="-226" type="curve" smooth="yes"/>
      <point x="16" y="-196"/>
      <point x="29" y="-165"/>
      <point x="43" y="-137" type="curve" smooth="yes"/>
      <point x="51" y="-117"/>
      <point x="60" y="-99"/>
      <point x="68" y="-80" type="curve" smooth="yes"/>
      <point x="95" y="-19"/>
      <point x="157" y="114"/>
      <point x="201" y="215" type="curve" smooth="yes"/>
      <point x="216" y="250"/>
      <point x="244" y="312"/>
      <point x="287" y="381" type="curve" smooth="yes"/>
      <point x="322" y="439"/>
      <point x="399" y="392"/>
    </contour>
  </outline>
</glyph>
<glyph name="copyright" format="2">
  <advance width="803"/>
  <unicode hex="00A9"/>
  <outline>
    <contour>
      <point x="382" y="313" type="curve" smooth="yes"/>
      <point x="294" y="321"/>
      <point x="225" y="293"/>
      <point x="225" y="220" type="curve" smooth="yes"/>
      <point x="225" y="151"/>
      <point x="280" y="132"/>
      <point x="363" y="181" type="curve" smooth="yes"/>
      <point x="422" y="215"/>
      <point x="467" y="137"/>
      <point x="409" y="103" type="curve" smooth="yes"/>
      <point x="253" y="12"/>
      <point x="135" y="92"/>
      <point x="135" y="220" type="curve" smooth="yes"/>
      <point x="135" y="344"/>
      <point x="240" y="415"/>
      <point x="390" y="403" type="curve" smooth="yes"/>
      <point x="457" y="397"/>
      <point x="450" y="308"/>
    </contour>
    <contour>
      <point x="263" y="-93" type="curve" smooth="yes"/>
      <point x="183" y="-108"/>
      <point x="123" y="-97"/>
      <point x="80" y="-67" type="curve" smooth="yes"/>
      <point x="-8" y="-5"/>
      <point x="-63" y="97"/>
      <point x="-63" y="220" type="curve" smooth="yes"/>
      <point x="-63" y="421"/>
      <point x="84" y="569"/>
      <point x="286" y="569" type="curve" smooth="yes"/>
      <point x="487" y="569"/>
      <point x="626" y="421"/>
      <point x="626" y="220" type="curve" smooth="yes"/>
      <point x="626" y="97"/>
      <point x="574" y="-5"/>
      <point x="490" y="-66" type="curve" smooth="yes"/>
      <point x="439" y="-103"/>
      <point x="393" y="-108"/>
      <point x="356" y="-89" type="curve" smooth="yes"/>
      <point x="296" y="-59"/>
      <point x="336" y="21"/>
      <point x="396" y="-9" type="curve" smooth="yes"/>
      <point x="405" y="-13"/>
      <point x="424" y="-2"/>
      <point x="436" y="6" type="curve" smooth="yes"/>
      <point x="500" y="52"/>
      <point x="536" y="129"/>
      <point x="536" y="220" type="curve" smooth="yes"/>
      <point x="536" y="371"/>
      <point x="437" y="479"/>
      <point x="286" y="479" type="curve" smooth="yes"/>
      <point x="134" y="479"/>
      <point x="27" y="371"/>
      <point x="27" y="220" type="curve" smooth="yes"/>
      <point x="27" y="129"/>
      <point x="66" y="53"/>
      <point x="130" y="7" type="curve" smooth="yes"/>
      <point x="157" y="-11"/>
      <point x="198" y="-14"/>
      <point x="247" y="-5" type="curve" smooth="yes"/>
      <point x="313" y="8"/>
      <point x="330" y="-81"/>
    </contour>
  </outline>
</glyph>
<glyph name="ordfeminine" format="2">
  <advance width="495"/>
  <unicode hex="00AA"/>
  <outline>
    <contour>
      <point x="247" y="305" type="curve" smooth="yes"/>
      <point x="141" y="305"/>
      <point x="61" y="387"/>
      <point x="61" y="498" type="curve" smooth="yes"/>
      <point x="61" y="610"/>
      <point x="141" y="690"/>
      <point x="246" y="690" type="curve" smooth="yes"/>
      <point x="350" y="690"/>
      <point x="431" y="610"/>
      <point x="431" y="498" type="curve" smooth="yes"/>
      <point x="431" y="386"/>
      <point x="352" y="305"/>
    </contour>
    <contour>
      <point x="399" y="133" type="curve" smooth="yes"/>
      <point x="106" y="133" type="line" smooth="yes"/>
      <point x="38" y="133"/>
      <point x="39" y="223"/>
      <point x="106" y="223" type="curve" smooth="yes"/>
      <point x="399" y="223" type="line" smooth="yes"/>
      <point x="467" y="223"/>
      <point x="467" y="133"/>
    </contour>
    <contour>
      <point x="341" y="354" type="curve" smooth="yes"/>
      <point x="341" y="642" type="line" smooth="yes"/>
      <point x="341" y="710"/>
      <point x="431" y="710"/>
      <point x="431" y="642" type="curve" smooth="yes"/>
      <point x="431" y="354" type="line" smooth="yes"/>
      <point x="431" y="287"/>
      <point x="341" y="287"/>
    </contour>
    <contour>
      <point x="247" y="395" type="curve" smooth="yes"/>
      <point x="304" y="395"/>
      <point x="341" y="438"/>
      <point x="341" y="498" type="curve" smooth="yes"/>
      <point x="341" y="558"/>
      <point x="302" y="600"/>
      <point x="246" y="600" type="curve" smooth="yes"/>
      <point x="189" y="600"/>
      <point x="151" y="558"/>
      <point x="151" y="498" type="curve" smooth="yes"/>
      <point x="151" y="438"/>
      <point x="189" y="395"/>
    </contour>
  </outline>
</glyph>
<glyph name="guillemetleft" format="2">
  <advance width="637"/>
  <unicode hex="00AB"/>
  <outline>
    <contour>
      <point x="189" y="305" type="curve" smooth="yes"/>
      <point x="145" y="264"/>
      <point x="153" y="271"/>
      <point x="100" y="218" type="curve" smooth="yes"/>
      <point x="53" y="172"/>
      <point x="37" y="163"/>
      <point x="59" y="99" type="curve" smooth="yes"/>
      <point x="79" y="40"/>
      <point x="140" y="27"/>
      <point x="195" y="18" type="curve" smooth="yes"/>
      <point x="262" y="8"/>
      <point x="247" y="-81"/>
      <point x="181" y="-70" type="curve" smooth="yes"/>
      <point x="89" y="-56"/>
      <point x="6" y="-27"/>
      <point x="-25" y="69" type="curve" smooth="yes"/>
      <point x="-61" y="170"/>
      <point x="-36" y="210"/>
      <point x="36" y="282" type="curve" smooth="yes"/>
      <point x="91" y="335"/>
      <point x="83" y="328"/>
      <point x="127" y="371" type="curve" smooth="yes"/>
      <point x="176" y="417"/>
      <point x="238" y="352"/>
    </contour>
    <contour>
      <point x="449" y="305" type="curve" smooth="yes"/>
      <point x="405" y="264"/>
      <point x="413" y="271"/>
      <point x="360" y="218" type="curve" smooth="yes"/>
      <point x="313" y="172"/>
      <point x="298" y="164"/>
      <point x="320" y="98" type="curve" smooth="yes"/>
      <point x="340" y="40"/>
      <point x="399" y="27"/>
      <point x="455" y="18" type="curve" smooth="yes"/>
      <point x="522" y="8"/>
      <point x="507" y="-81"/>
      <point x="441" y="-70" type="curve" smooth="yes"/>
      <point x="350" y="-56"/>
      <point x="268" y="-27"/>
      <point x="234" y="70" type="curve" smooth="yes"/>
      <point x="200" y="171"/>
      <point x="224" y="211"/>
      <point x="296" y="282" type="curve" smooth="yes"/>
      <point x="351" y="335"/>
      <point x="343" y="328"/>
      <point x="387" y="371" type="curve" smooth="yes"/>
      <point x="436" y="417"/>
      <point x="498" y="352"/>
    </contour>
  </outline>
</glyph>
<glyph name="registered" format="2">
  <advance width="644"/>
  <unicode hex="00AE"/>
  <outline>
    <contour>
      <point x="159" y="26" type="curve" smooth="yes"/>
      <point x="11" y="36"/>
      <point x="-87" y="138"/>
      <point x="-87" y="278" type="curve" smooth="yes"/>
      <point x="-87" y="445"/>
      <point x="35" y="569"/>
      <point x="202" y="569" type="curve" smooth="yes"/>
      <point x="369" y="569"/>
      <point x="491" y="445"/>
      <point x="491" y="278" type="curve" smooth="yes"/>
      <point x="491" y="134"/>
      <point x="413" y="38"/>
      <point x="310" y="27" type="curve" smooth="yes"/>
      <point x="243" y="20"/>
      <point x="233" y="109"/>
      <point x="300" y="117" type="curve" smooth="yes"/>
      <point x="363" y="124"/>
      <point x="401" y="191"/>
      <point x="401" y="278" type="curve" smooth="yes"/>
      <point x="401" y="395"/>
      <point x="319" y="479"/>
      <point x="202" y="479" type="curve" smooth="yes"/>
      <point x="85" y="479"/>
      <point x="3" y="395"/>
      <point x="3" y="278" type="curve" smooth="yes"/>
      <point x="3" y="184"/>
      <point x="65" y="122"/>
      <point x="165" y="116" type="curve" smooth="yes"/>
      <point x="232" y="112"/>
      <point x="226" y="22"/>
    </contour>
    <contour>
      <point x="86" y="181" type="curve" smooth="yes"/>
      <point x="86" y="230"/>
      <point x="86" y="268"/>
      <point x="86" y="302" type="curve" smooth="yes"/>
      <point x="86" y="389"/>
      <point x="128" y="424"/>
      <point x="197" y="424" type="curve" smooth="yes"/>
      <point x="272" y="424"/>
      <point x="302" y="356"/>
      <point x="293" y="287" type="curve" smooth="yes"/>
      <point x="282" y="208"/>
      <point x="238" y="192"/>
      <point x="217" y="190" type="curve"/>
      <point x="145" y="180"/>
      <point x="151" y="343"/>
      <point x="282" y="378" type="curve" smooth="yes"/>
      <point x="332" y="392"/>
      <point x="379" y="401"/>
      <point x="332" y="172" type="curve" smooth="yes"/>
      <point x="319" y="106"/>
      <point x="230" y="124"/>
      <point x="244" y="190" type="curve" smooth="yes"/>
      <point x="246" y="200"/>
      <point x="308" y="292"/>
      <point x="306" y="292" type="curve" smooth="yes"/>
      <point x="303" y="291"/>
      <point x="205" y="279"/>
      <point x="209" y="280" type="curve" smooth="yes"/>
      <point x="210" y="280"/>
      <point x="203" y="296"/>
      <point x="203" y="299" type="curve" smooth="yes"/>
      <point x="205" y="308"/>
      <point x="206" y="334"/>
      <point x="197" y="334" type="curve" smooth="yes"/>
      <point x="176" y="334"/>
      <point x="176" y="329"/>
      <point x="176" y="302" type="curve" smooth="yes"/>
      <point x="176" y="252"/>
      <point x="176" y="214"/>
      <point x="176" y="181" type="curve" smooth="yes"/>
      <point x="176" y="114"/>
      <point x="86" y="114"/>
    </contour>
  </outline>
</glyph>
<glyph name="twosuperior" format="2">
  <advance width="431"/>
  <unicode hex="00B2"/>
  <outline>
    <contour>
      <point x="235" y="169" type="curve" smooth="yes"/>
      <point x="190" y="158"/>
      <point x="151" y="155"/>
      <point x="116" y="155" type="curve" smooth="yes"/>
      <point x="-48" y="155"/>
      <point x="-4" y="295"/>
      <point x="121" y="394" type="curve" smooth="yes"/>
      <point x="128" y="399"/>
      <point x="190" y="402"/>
      <point x="188" y="403" type="curve" smooth="yes"/>
      <point x="150" y="422"/>
      <point x="79" y="499"/>
      <point x="16" y="461" type="curve" smooth="yes"/>
      <point x="-42" y="427"/>
      <point x="-88" y="504"/>
      <point x="-30" y="539" type="curve" smooth="yes"/>
      <point x="88" y="609"/>
      <point x="156" y="519"/>
      <point x="228" y="483" type="curve" smooth="yes"/>
      <point x="277" y="459"/>
      <point x="312" y="429"/>
      <point x="177" y="324" type="curve" smooth="yes"/>
      <point x="154" y="305"/>
      <point x="86" y="245"/>
      <point x="116" y="245" type="curve" smooth="yes"/>
      <point x="145" y="245"/>
      <point x="176" y="248"/>
      <point x="215" y="257" type="curve" smooth="yes"/>
      <point x="280" y="272"/>
      <point x="301" y="185"/>
    </contour>
  </outline>
</glyph>
<glyph name="onesuperior" format="2">
  <advance width="338"/>
  <unicode hex="00B9"/>
  <outline>
    <contour>
      <point x="-49" y="541" type="curve" smooth="yes"/>
      <point x="105" y="573"/>
      <point x="145" y="555"/>
      <point x="145" y="462" type="curve" smooth="yes"/>
      <point x="145" y="376"/>
      <point x="115" y="266"/>
      <point x="115" y="191" type="curve" smooth="yes"/>
      <point x="115" y="124"/>
      <point x="25" y="124"/>
      <point x="25" y="191" type="curve" smooth="yes"/>
      <point x="25" y="276"/>
      <point x="55" y="386"/>
      <point x="55" y="462" type="curve" smooth="yes"/>
      <point x="55" y="475"/>
      <point x="-10" y="457"/>
      <point x="-31" y="453" type="curve" smooth="yes"/>
      <point x="-97" y="439"/>
      <point x="-115" y="527"/>
    </contour>
  </outline>
</glyph>
<glyph name="onequarter" format="2">
  <advance width="899"/>
  <unicode hex="00BC"/>
  <outline>
    <contour>
      <point x="-49" y="541" type="curve" smooth="yes"/>
      <point x="97" y="572"/>
      <point x="115" y="521"/>
      <point x="115" y="432" type="curve" smooth="yes"/>
      <point x="115" y="333"/>
      <point x="115" y="256"/>
      <point x="115" y="191" type="curve" smooth="yes"/>
      <point x="115" y="124"/>
      <point x="25" y="124"/>
      <point x="25" y="191" type="curve" smooth="yes"/>
      <point x="25" y="288"/>
      <point x="25" y="366"/>
      <point x="25" y="432" type="curve" smooth="yes"/>
      <point x="25" y="467"/>
      <point x="27" y="465"/>
      <point x="-31" y="453" type="curve" smooth="yes"/>
      <point x="-97" y="439"/>
      <point x="-115" y="527"/>
    </contour>
    <contour>
      <point x="530" y="496" type="curve" smooth="yes"/>
      <point x="154" y="-104" type="line" smooth="yes"/>
      <point x="118" y="-161"/>
      <point x="42" y="-113"/>
      <point x="78" y="-56" type="curve" smooth="yes"/>
      <point x="454" y="544" type="line" smooth="yes"/>
      <point x="490" y="601"/>
      <point x="566" y="553"/>
    </contour>
    <contour>
      <point x="699" y="-32" type="curve" smooth="yes"/>
      <point x="626" y="-32"/>
      <point x="566" y="-32"/>
      <point x="516" y="-32" type="curve" smooth="yes"/>
      <point x="419" y="-32"/>
      <point x="376" y="28"/>
      <point x="425" y="115" type="curve" smooth="yes"/>
      <point x="444" y="150"/>
      <point x="452" y="164"/>
      <point x="479" y="212" type="curve" smooth="yes"/>
      <point x="543" y="327"/>
      <point x="666" y="311"/>
      <point x="666" y="180" type="curve" smooth="yes"/>
      <point x="666" y="101"/>
      <point x="666" y="-5"/>
      <point x="666" y="-80" type="curve" smooth="yes"/>
      <point x="666" y="-147"/>
      <point x="576" y="-147"/>
      <point x="576" y="-80" type="curve" smooth="yes"/>
      <point x="576" y="32"/>
      <point x="576" y="127"/>
      <point x="576" y="180" type="curve" smooth="yes"/>
      <point x="576" y="200"/>
      <point x="567" y="186"/>
      <point x="557" y="168" type="curve" smooth="yes"/>
      <point x="530" y="120"/>
      <point x="522" y="106"/>
      <point x="503" y="71" type="curve" smooth="yes"/>
      <point x="495" y="56"/>
      <point x="499" y="58"/>
      <point x="516" y="58" type="curve" smooth="yes"/>
      <point x="590" y="58"/>
      <point x="650" y="58"/>
      <point x="699" y="58" type="curve" smooth="yes"/>
      <point x="767" y="58"/>
      <point x="767" y="-32"/>
    </contour>
  </outline>
</glyph>
<glyph name="threequarters" format="2">
  <advance width="960"/>
  <unicode hex="00BE"/>
  <outline>
    <contour>
      <point x="591" y="496" type="curve" smooth="yes"/>
      <point x="215" y="-104" type="line" smooth="yes"/>
      <point x="179" y="-161"/>
      <point x="103" y="-113"/>
      <point x="139" y="-56" type="curve" smooth="yes"/>
      <point x="515" y="544" type="line" smooth="yes"/>
      <point x="551" y="601"/>
      <point x="627" y="553"/>
    </contour>
    <contour>
      <point x="760" y="-32" type="curve" smooth="yes"/>
      <point x="687" y="-32"/>
      <point x="627" y="-32"/>
      <point x="577" y="-32" type="curve" smooth="yes"/>
      <point x="480" y="-32"/>
      <point x="437" y="28"/>
      <point x="486" y="115" type="curve" smooth="yes"/>
      <point x="505" y="150"/>
      <point x="513" y="164"/>
      <point x="540" y="212" type="curve" smooth="yes"/>
      <point x="604" y="327"/>
      <point x="727" y="311"/>
      <point x="727" y="180" type="curve" smooth="yes"/>
      <point x="727" y="101"/>
      <point x="727" y="-5"/>
      <point x="727" y="-80" type="curve" smooth="yes"/>
      <point x="727" y="-147"/>
      <point x="637" y="-147"/>
      <point x="637" y="-80" type="curve" smooth="yes"/>
      <point x="637" y="32"/>
      <point x="637" y="127"/>
      <point x="637" y="180" type="curve" smooth="yes"/>
      <point x="637" y="200"/>
      <point x="628" y="186"/>
      <point x="618" y="168" type="curve" smooth="yes"/>
      <point x="591" y="120"/>
      <point x="583" y="106"/>
      <point x="564" y="71" type="curve" smooth="yes"/>
      <point x="556" y="56"/>
      <point x="560" y="58"/>
      <point x="577" y="58" type="curve" smooth="yes"/>
      <point x="651" y="58"/>
      <point x="711" y="58"/>
      <point x="760" y="58" type="curve" smooth="yes"/>
      <point x="828" y="58"/>
      <point x="828" y="-32"/>
    </contour>
    <contour>
      <point x="6" y="255" type="curve" smooth="yes"/>
      <point x="64" y="233"/>
      <point x="156" y="234"/>
      <point x="156" y="279" type="curve" smooth="yes"/>
      <point x="156" y="304"/>
      <point x="130" y="317"/>
      <point x="87" y="319" type="curve" smooth="yes"/>
      <point x="-22" y="326"/>
      <point x="-32" y="382"/>
      <point x="69" y="466" type="curve" smooth="yes"/>
      <point x="75" y="470"/>
      <point x="135" y="470"/>
      <point x="130" y="470" type="curve" smooth="yes"/>
      <point x="64" y="470"/>
      <point x="24" y="470"/>
      <point x="-8" y="470" type="curve" smooth="yes"/>
      <point x="-76" y="470"/>
      <point x="-75" y="560"/>
      <point x="-8" y="560" type="curve" smooth="yes"/>
      <point x="40" y="560"/>
      <point x="86" y="560"/>
      <point x="130" y="560" type="curve" smooth="yes"/>
      <point x="237" y="560"/>
      <point x="248" y="496"/>
      <point x="127" y="396" type="curve" smooth="yes"/>
      <point x="122" y="392"/>
      <point x="87" y="409"/>
      <point x="91" y="409" type="curve" smooth="yes"/>
      <point x="201" y="403"/>
      <point x="246" y="342"/>
      <point x="246" y="279" type="curve" smooth="yes"/>
      <point x="246" y="171"/>
      <point x="113" y="119"/>
      <point x="-26" y="171" type="curve" smooth="yes"/>
      <point x="-89" y="195"/>
      <point x="-57" y="279"/>
    </contour>
  </outline>
</glyph>
<glyph name="questiondown" format="2">
  <advance width="511"/>
  <unicode hex="00BF"/>
  <outline>
    <contour>
      <point x="296" y="451" type="curve" smooth="yes"/>
      <point x="212" y="464"/>
      <point x="212" y="572"/>
      <point x="296" y="585" type="curve" smooth="yes"/>
      <point x="363" y="594"/>
      <point x="376" y="505"/>
      <point x="310" y="495" type="curve" smooth="yes"/>
      <point x="307" y="495"/>
      <point x="307" y="541"/>
      <point x="310" y="541" type="curve" smooth="yes"/>
      <point x="376" y="531"/>
      <point x="363" y="442"/>
    </contour>
    <contour>
      <point x="450" y="-74" type="curve" smooth="yes"/>
      <point x="236" y="-163"/>
      <point x="49" y="-76"/>
      <point x="49" y="65" type="curve" smooth="yes"/>
      <point x="49" y="171"/>
      <point x="142" y="243"/>
      <point x="284" y="278" type="curve"/>
      <point x="250" y="234" type="line"/>
      <point x="250" y="313" type="line" smooth="yes"/>
      <point x="250" y="381"/>
      <point x="340" y="381"/>
      <point x="340" y="313" type="curve" smooth="yes"/>
      <point x="340" y="234" type="line" smooth="yes"/>
      <point x="340" y="213"/>
      <point x="326" y="195"/>
      <point x="306" y="190" type="curve" smooth="yes"/>
      <point x="220" y="169"/>
      <point x="139" y="129"/>
      <point x="139" y="65" type="curve" smooth="yes"/>
      <point x="139" y="-20"/>
      <point x="287" y="-44"/>
      <point x="416" y="10" type="curve" smooth="yes"/>
      <point x="478" y="35"/>
      <point x="513" y="-48"/>
    </contour>
  </outline>
</glyph>
<glyph name="AE" format="2">
  <advance width="844"/>
  <unicode hex="00C6"/>
  <outline>
    <contour>
      <point x="446" y="173" type="curve" smooth="yes"/>
      <point x="162" y="173" type="line" smooth="yes"/>
      <point x="95" y="173"/>
      <point x="95" y="263"/>
      <point x="162" y="263" type="curve" smooth="yes"/>
      <point x="446" y="263" type="line" smooth="yes"/>
      <point x="514" y="263"/>
      <point x="514" y="173"/>
    </contour>
    <contour>
      <point x="446" y="395" type="curve" smooth="yes"/>
      <point x="724" y="395" type="line" smooth="yes"/>
      <point x="792" y="395"/>
      <point x="792" y="305"/>
      <point x="724" y="305" type="curve" smooth="yes"/>
      <point x="446" y="305" type="line" smooth="yes"/>
      <point x="379" y="305"/>
      <point x="379" y="395"/>
    </contour>
    <contour>
      <point x="744" y="590" type="curve" smooth="yes"/>
      <point x="359" y="590" type="line"/>
      <point x="400" y="616" type="line"/>
      <point x="116" y="21" type="line" smooth="yes"/>
      <point x="87" y="-40"/>
      <point x="5" y="-2"/>
      <point x="34" y="59" type="curve" smooth="yes"/>
      <point x="318" y="654" type="line" smooth="yes"/>
      <point x="326" y="670"/>
      <point x="342" y="680"/>
      <point x="359" y="680" type="curve" smooth="yes"/>
      <point x="744" y="680" type="line" smooth="yes"/>
      <point x="812" y="680"/>
      <point x="812" y="590"/>
    </contour>
    <contour>
      <point x="744" y="0" type="curve" smooth="yes"/>
      <point x="446" y="0" type="line" smooth="yes"/>
      <point x="421" y="0"/>
      <point x="401" y="20"/>
      <point x="401" y="45" type="curve" smooth="yes"/>
      <point x="401" y="635" type="line" smooth="yes"/>
      <point x="401" y="703"/>
      <point x="491" y="703"/>
      <point x="491" y="635" type="curve" smooth="yes"/>
      <point x="491" y="45" type="line"/>
      <point x="446" y="90" type="line"/>
      <point x="744" y="90" type="line" smooth="yes"/>
      <point x="812" y="90"/>
      <point x="812" y="0"/>
    </contour>
  </outline>
</glyph>
<glyph name="ae" format="2">
  <advance width="938"/>
  <unicode hex="00E6"/>
  <outline>
    <contour>
      <point x="519" y="458" type="curve" smooth="yes"/>
      <point x="519" y="403"/>
      <point x="519" y="345"/>
      <point x="519" y="244" type="curve" smooth="yes"/>
      <point x="519" y="99"/>
      <point x="345" y="-85"/>
      <point x="179" y="-120" type="curve" smooth="yes"/>
      <point x="9" y="-155"/>
      <point x="-81" y="-23"/>
      <point x="-81" y="129" type="curve" smooth="yes"/>
      <point x="-81" y="280"/>
      <point x="22" y="388"/>
      <point x="159" y="388" type="curve" smooth="yes"/>
      <point x="295" y="388"/>
      <point x="399" y="285"/>
      <point x="399" y="134" type="curve" smooth="yes"/>
      <point x="399" y="23"/>
      <point x="466" y="-41"/>
      <point x="559" y="-41" type="curve" smooth="yes"/>
      <point x="603" y="-41"/>
      <point x="651" y="-27"/>
      <point x="699" y="-1" type="curve" smooth="yes"/>
      <point x="758" y="32"/>
      <point x="802" y="-47"/>
      <point x="743" y="-79" type="curve" smooth="yes"/>
      <point x="679" y="-115"/>
      <point x="617" y="-131"/>
      <point x="559" y="-131" type="curve" smooth="yes"/>
      <point x="420" y="-131"/>
      <point x="309" y="-31"/>
      <point x="309" y="134" type="curve" smooth="yes"/>
      <point x="309" y="233"/>
      <point x="247" y="298"/>
      <point x="159" y="298" type="curve" smooth="yes"/>
      <point x="70" y="298"/>
      <point x="9" y="228"/>
      <point x="9" y="129" type="curve" smooth="yes"/>
      <point x="9" y="32"/>
      <point x="52" y="-55"/>
      <point x="161" y="-32" type="curve" smooth="yes"/>
      <point x="280" y="-7"/>
      <point x="429" y="139"/>
      <point x="429" y="244" type="curve" smooth="yes"/>
      <point x="429" y="394"/>
      <point x="429" y="421"/>
      <point x="429" y="458" type="curve" smooth="yes"/>
      <point x="429" y="526"/>
      <point x="519" y="526"/>
    </contour>
    <contour>
      <point x="491" y="198" type="curve" smooth="yes"/>
      <point x="533" y="172"/>
      <point x="572" y="174"/>
      <point x="640" y="174" type="curve" smooth="yes"/>
      <point x="679" y="174"/>
      <point x="687" y="182"/>
      <point x="676" y="212" type="curve" smooth="yes"/>
      <point x="656" y="268"/>
      <point x="592" y="295"/>
      <point x="547" y="310" type="curve" smooth="yes"/>
      <point x="508" y="325"/>
      <point x="519" y="303"/>
      <point x="519" y="238" type="curve" smooth="yes"/>
      <point x="519" y="88"/>
      <point x="519" y="75"/>
      <point x="519" y="40" type="curve" smooth="yes"/>
      <point x="519" y="-28"/>
      <point x="429" y="-27"/>
      <point x="429" y="40" type="curve" smooth="yes"/>
      <point x="429" y="92"/>
      <point x="429" y="137"/>
      <point x="429" y="238" type="curve" smooth="yes"/>
      <point x="429" y="421"/>
      <point x="467" y="435"/>
      <point x="577" y="396" type="curve" smooth="yes"/>
      <point x="647" y="371"/>
      <point x="729" y="330"/>
      <point x="760" y="244" type="curve" smooth="yes"/>
      <point x="792" y="159"/>
      <point x="751" y="84"/>
      <point x="640" y="84" type="curve" smooth="yes"/>
      <point x="547" y="84"/>
      <point x="502" y="86"/>
      <point x="445" y="120" type="curve" smooth="yes"/>
      <point x="387" y="155"/>
      <point x="433" y="232"/>
    </contour>
  </outline>
</glyph>
<glyph name="oe" format="2">
  <advance width="957"/>
  <unicode hex="0153"/>
  <outline>
    <contour>
      <point x="512" y="197" type="curve" smooth="yes"/>
      <point x="550" y="172"/>
      <point x="575" y="174"/>
      <point x="649" y="174" type="curve" smooth="yes"/>
      <point x="686" y="174"/>
      <point x="707" y="176"/>
      <point x="697" y="206" type="curve" smooth="yes"/>
      <point x="678" y="264"/>
      <point x="634" y="298"/>
      <point x="571" y="298" type="curve" smooth="yes"/>
      <point x="480" y="298"/>
      <point x="418" y="230"/>
      <point x="418" y="124" type="curve" smooth="yes"/>
      <point x="418" y="-25"/>
      <point x="311" y="-131"/>
      <point x="168" y="-131" type="curve" smooth="yes"/>
      <point x="26" y="-131"/>
      <point x="-81" y="-21"/>
      <point x="-81" y="129" type="curve" smooth="yes"/>
      <point x="-81" y="274"/>
      <point x="11" y="374"/>
      <point x="171" y="398" type="curve" smooth="yes"/>
      <point x="346" y="423"/>
      <point x="518" y="390"/>
      <point x="518" y="234" type="curve" smooth="yes"/>
      <point x="518" y="126"/>
      <point x="547" y="1"/>
      <point x="613" y="-24" type="curve" smooth="yes"/>
      <point x="639" y="-33"/>
      <point x="678" y="-23"/>
      <point x="718" y="-1" type="curve" smooth="yes"/>
      <point x="777" y="32"/>
      <point x="821" y="-47"/>
      <point x="762" y="-79" type="curve" smooth="yes"/>
      <point x="691" y="-119"/>
      <point x="630" y="-125"/>
      <point x="583" y="-108" type="curve" smooth="yes"/>
      <point x="480" y="-71"/>
      <point x="428" y="68"/>
      <point x="428" y="234" type="curve" smooth="yes"/>
      <point x="428" y="323"/>
      <point x="284" y="323"/>
      <point x="185" y="308" type="curve" smooth="yes"/>
      <point x="71" y="292"/>
      <point x="9" y="232"/>
      <point x="9" y="129" type="curve" smooth="yes"/>
      <point x="9" y="31"/>
      <point x="74" y="-41"/>
      <point x="168" y="-41" type="curve" smooth="yes"/>
      <point x="263" y="-41"/>
      <point x="328" y="25"/>
      <point x="328" y="124" type="curve" smooth="yes"/>
      <point x="328" y="284"/>
      <point x="434" y="388"/>
      <point x="571" y="388" type="curve" smooth="yes"/>
      <point x="674" y="388"/>
      <point x="752" y="328"/>
      <point x="783" y="234" type="curve" smooth="yes"/>
      <point x="812" y="145"/>
      <point x="759" y="84"/>
      <point x="649" y="84" type="curve" smooth="yes"/>
      <point x="546" y="84"/>
      <point x="516" y="87"/>
      <point x="462" y="121" type="curve" smooth="yes"/>
      <point x="406" y="158"/>
      <point x="455" y="234"/>
    </contour>
  </outline>
</glyph>
<glyph name="circumflex" format="2">
  <advance width="562"/>
  <unicode hex="02C6"/>
  <outline>
    <contour>
      <point x="129" y="638" type="curve" smooth="yes"/>
      <point x="251" y="744" type="line" smooth="yes"/>
      <point x="268" y="759"/>
      <point x="294" y="759"/>
      <point x="311" y="744" type="curve" smooth="yes"/>
      <point x="433" y="638" type="line" smooth="yes"/>
      <point x="483" y="594"/>
      <point x="424" y="526"/>
      <point x="373" y="570" type="curve" smooth="yes"/>
      <point x="251" y="676" type="line"/>
      <point x="311" y="676" type="line"/>
      <point x="189" y="570" type="line" smooth="yes"/>
      <point x="138" y="526"/>
      <point x="79" y="594"/>
    </contour>
  </outline>
</glyph>
<glyph name="tilde" format="2">
  <advance width="565"/>
  <unicode hex="02DC"/>
  <outline>
    <contour>
      <point x="385" y="606" type="curve" smooth="yes"/>
      <point x="344" y="485"/>
      <point x="303" y="438"/>
      <point x="234" y="438" type="curve" smooth="yes"/>
      <point x="127" y="438"/>
      <point x="131" y="545"/>
      <point x="87" y="545" type="curve" smooth="yes"/>
      <point x="83" y="545"/>
      <point x="70" y="548"/>
      <point x="72" y="545" type="curve" smooth="yes"/>
      <point x="121" y="498"/>
      <point x="58" y="434"/>
      <point x="10" y="481" type="curve" smooth="yes"/>
      <point x="-47" y="535"/>
      <point x="-7" y="635"/>
      <point x="87" y="635" type="curve" smooth="yes"/>
      <point x="192" y="635"/>
      <point x="189" y="528"/>
      <point x="234" y="528" type="curve" smooth="yes"/>
      <point x="262" y="528"/>
      <point x="283" y="586"/>
      <point x="299" y="634" type="curve" smooth="yes"/>
      <point x="321" y="698"/>
      <point x="406" y="670"/>
    </contour>
  </outline>
</glyph>
<glyph name="quoteright" format="2">
  <advance width="279"/>
  <unicode hex="2019"/>
  <outline>
    <contour>
      <point x="-44" y="349" type="curve" smooth="yes"/>
      <point x="-19" y="391"/>
      <point x="5" y="464"/>
      <point x="-21" y="488" type="curve" smooth="yes"/>
      <point x="-71" y="533"/>
      <point x="-11" y="600"/>
      <point x="39" y="554" type="curve" smooth="yes"/>
      <point x="97" y="502"/>
      <point x="90" y="400"/>
      <point x="34" y="303" type="curve" smooth="yes"/>
      <point x="0" y="245"/>
      <point x="-78" y="290"/>
    </contour>
  </outline>
</glyph>
<glyph name="quotedblright" format="2">
  <advance width="474"/>
  <unicode hex="201D"/>
  <outline>
    <contour>
      <point x="-44" y="349" type="curve" smooth="yes"/>
      <point x="-19" y="391"/>
      <point x="5" y="464"/>
      <point x="-21" y="488" type="curve" smooth="yes"/>
      <point x="-71" y="533"/>
      <point x="-11" y="600"/>
      <point x="39" y="554" type="curve" smooth="yes"/>
      <point x="97" y="502"/>
      <point x="90" y="400"/>
      <point x="34" y="303" type="curve" smooth="yes"/>
      <point x="0" y="245"/>
      <point x="-78" y="290"/>
    </contour>
    <contour>
      <point x="156" y="349" type="curve" smooth="yes"/>
      <point x="181" y="391"/>
      <point x="205" y="464"/>
      <point x="179" y="488" type="curve" smooth="yes"/>
      <point x="129" y="533"/>
      <point x="189" y="600"/>
      <point x="239" y="554" type="curve" smooth="yes"/>
      <point x="297" y="502"/>
      <point x="290" y="400"/>
      <point x="234" y="303" type="curve" smooth="yes"/>
      <point x="200" y="245"/>
      <point x="122" y="290"/>
    </contour>
  </outline>
</glyph>
<glyph name="minus" format="2">
  <advance width="476"/>
  <unicode hex="2212"/>
  <outline>
    <contour>
      <point x="290" y="145" type="curve" smooth="yes"/>
      <point x="108" y="86"/>
      <point x="-7" y="96"/>
      <point x="-71" y="155" type="curve" smooth="yes"/>
      <point x="-120" y="201"/>
      <point x="-59" y="267"/>
      <point x="-9" y="221" type="curve" smooth="yes"/>
      <point x="34" y="181"/>
      <point x="139" y="191"/>
      <point x="262" y="231" type="curve" smooth="yes"/>
      <point x="326" y="252"/>
      <point x="354" y="166"/>
    </contour>
  </outline>
</glyph>
<glyph name="R" format="2">
  <advance width="641"/>
  <outline>
    <contour>
      <point x="98.02094094303342" y="39.98778894035391" type="curve" smooth="yes"/>
      <point x="98.0246385922382" y="61.16636439524591"/>
      <point x="98.02617746900847" y="82.6634603444424"/>
      <point x="98.0261792757054" y="141.97382322937415" type="curve" smooth="yes"/>
      <point x="98.026191704096" y="549.9738170151788" type="line" smooth="yes"/>
      <point x="98.02619419351048" y="631.6964730671738"/>
      <point x="150.360071128189" y="689.9738141213134"/>
      <point x="238.02619307487436" y="689.9738141213134" type="curve" smooth="yes"/>
      <point x="328.026191704096" y="689.9738141213134" type="line" smooth="yes"/>
      <point x="458.0750323805623" y="689.9738141213134"/>
      <point x="546.0261879945833" y="602.1976898703062"/>
      <point x="546.0261841495841" y="475.973815096089" type="curve" smooth="yes"/>
      <point x="546.0261802017969" y="346.37561357987704"/>
      <point x="453.5506564853111" y="259.97381914750076"/>
      <point x="360.02618116433337" y="259.97381914750076" type="curve" smooth="yes"/>
      <point x="303.026182032493" y="259.97381914750076" type="line" smooth="yes"/>
      <point x="191.0313372305006" y="259.97381914750076"/>
      <point x="202.67485309736372" y="274.61447095392083"/>
      <point x="202.65757919189133" y="274.6317448596563" type="curve" smooth="yes"/>
      <point x="202.6304419995266" y="274.65888205243476"/>
      <point x="120.09932632652577" y="359.99999908614774"/>
      <point x="305.000002063783" y="359.99999908614774" type="curve" smooth="yes"/>
      <point x="309.0000020028595" y="359.99999908614774" type="line" smooth="yes"/>
      <point x="384.0068183527823" y="359.99999908614774"/>
      <point x="422.296979264435" y="340.9986421233562"/>
      <point x="457.0116048414815" y="282.5044709381158" type="curve" smooth="yes"/>
      <point x="485.89984457169845" y="233.8277644511281"/>
      <point x="515.2456224705636" y="175.07134836587676"/>
      <point x="540.5164738822558" y="134.32860022015186" type="curve" smooth="yes"/>
      <point x="562.9271116475501" y="98.19721092180816"/>
      <point x="572.8685995590274" y="82.34787663239486"/>
      <point x="582.624790266389" y="67.71205692199516" type="curve" smooth="yes"/>
      <point x="624.2242867780338" y="5.30627281525026"/>
      <point x="541.0165746357073" y="-50.15972253360947"/>
      <point x="499.4170781240625" y="12.246061573135428" type="curve" smooth="yes"/>
      <point x="489.19055412694513" y="27.58745515341368"/>
      <point x="479.02689745746613" y="43.74580755287904"/>
      <point x="455.5358719361469" y="81.61904422812145" type="curve" smooth="yes"/>
      <point x="428.78051651703817" y="124.75517326593258"/>
      <point x="398.3010138556658" y="185.49239156010606"/>
      <point x="371.01561987258816" y="231.46830171245912" type="curve" smooth="yes"/>
      <point x="354.360058825747" y="259.53293507276624"/>
      <point x="344.9871569232735" y="259.99999908614774"/>
      <point x="309.0000020028595" y="259.99999908614774" type="curve" smooth="yes"/>
      <point x="305.000002063783" y="259.99999908614774" type="line" smooth="yes"/>
      <point x="301.6815242474401" y="259.99999908614774"/>
      <point x="273.3677708083488" y="345.34290948051574"/>
      <point x="273.3682578490163" y="345.34242243984085" type="curve" smooth="yes"/>
      <point x="273.368758053067" y="345.3419222357827"/>
      <point x="299.78312416652165" y="359.97381914750076"/>
      <point x="303.026182032493" y="359.97381914750076" type="curve" smooth="yes"/>
      <point x="360.02618116433337" y="359.97381914750076" type="line" smooth="yes"/>
      <point x="406.0308413931517" y="359.97381914750076"/>
      <point x="446.02618220766874" y="412.2245032537577"/>
      <point x="446.0261841495841" y="475.9738181422634" type="curve" smooth="yes"/>
      <point x="446.02618633472997" y="547.7079273769057"/>
      <point x="401.93406182463656" y="589.9738141213134"/>
      <point x="328.026191704096" y="589.9738141213134" type="curve" smooth="yes"/>
      <point x="238.02619307487436" y="589.9738141213134" type="line" smooth="yes"/>
      <point x="207.93280531283892" y="589.9738141213134"/>
      <point x="198.02619255864403" y="578.026972052258"/>
      <point x="198.02619170409594" y="549.9738139690046" type="curve" smooth="yes"/>
      <point x="198.02617927570535" y="141.97382018319996" type="line" smooth="yes"/>
      <point x="198.0261776723982" y="89.34034892332194"/>
      <point x="198.02422080351232" y="58.764717049806045"/>
      <point x="198.0209394188827" y="39.97032955477667" type="curve" smooth="yes"/>
      <point x="198.0078448796997" y="-35.02966930211028"/>
      <point x="98.00784640385041" y="-35.01220991653304"/>
    </contour>
  </outline>
</glyph>
<glyph name="acute.cap" format="2">
  <advance width="408"/>
  <outline>
    <contour>
      <point x="167" y="744" type="curve" smooth="yes"/>
      <point x="76" y="638" type="line" smooth="yes"/>
      <point x="32" y="586"/>
      <point x="-36" y="645"/>
      <point x="8" y="696" type="curve" smooth="yes"/>
      <point x="99" y="802" type="line" smooth="yes"/>
      <point x="143" y="854"/>
      <point x="211" y="795"/>
    </contour>
  </outline>
</glyph>
<glyph name="dieresis.cap" format="2">
  <advance width="577"/>
  <outline>
    <contour>
      <point x="63" y="654" type="curve" smooth="yes"/>
      <point x="-21" y="667"/>
      <point x="-21" y="775"/>
      <point x="63" y="788" type="curve" smooth="yes"/>
      <point x="130" y="797"/>
      <point x="143" y="708"/>
      <point x="77" y="698" type="curve" smooth="yes"/>
      <point x="74" y="698"/>
      <point x="74" y="744"/>
      <point x="77" y="744" type="curve" smooth="yes"/>
      <point x="143" y="734"/>
      <point x="130" y="645"/>
    </contour>
    <contour>
      <point x="283" y="654" type="curve" smooth="yes"/>
      <point x="199" y="667"/>
      <point x="199" y="775"/>
      <point x="283" y="788" type="curve" smooth="yes"/>
      <point x="350" y="797"/>
      <point x="363" y="708"/>
      <point x="297" y="698" type="curve" smooth="yes"/>
      <point x="294" y="698"/>
      <point x="294" y="744"/>
      <point x="297" y="744" type="curve" smooth="yes"/>
      <point x="363" y="734"/>
      <point x="350" y="645"/>
    </contour>
  </outline>
</glyph>
<glyph name="period" format="2">
  <advance width="257"/>
  <outline>
    <contour>
      <point x="171.76078226217817" y="80.65957799913836" type="curve" smooth="yes"/>
      <point x="171.32415982510952" y="79.78438706400692"/>
      <point x="166.23837562926008" y="74.40198045871445"/>
      <point x="170.83002739839063" y="67.40533734295006" type="curve" smooth="yes"/>
      <point x="211.97991651692658" y="4.70217453968953"/>
      <point x="128.37569944591255" y="-50.164344285025095"/>
      <point x="87.22581032737659" y="12.538818518235434" type="curve" smooth="yes"/>
      <point x="50.48108885177369" y="68.52949801212867"/>
      <point x="78.78423046867229" y="118.29761027155465"/>
      <point x="82.27830420221312" y="125.30133110369145" type="curve" smooth="yes"/>
      <point x="115.75961903062802" y="192.4131896486652"/>
      <point x="205.24209709059306" y="147.7714365441121"/>
    </contour>
  </outline>
</glyph>
<glyph name="ring.cap" format="2">
  <advance width="420"/>
  <outline>
    <contour>
      <point x="89" y="684" type="curve" smooth="yes"/>
      <point x="118" y="684"/>
      <point x="134" y="696"/>
      <point x="134" y="723" type="curve" smooth="yes"/>
      <point x="134" y="747"/>
      <point x="116" y="757"/>
      <point x="89" y="757" type="curve" smooth="yes"/>
      <point x="63" y="757"/>
      <point x="47" y="747"/>
      <point x="47" y="723" type="curve" smooth="yes"/>
      <point x="47" y="696"/>
      <point x="61" y="684"/>
    </contour>
    <contour>
      <point x="89" y="594" type="curve" smooth="yes"/>
      <point x="9" y="594"/>
      <point x="-43" y="648"/>
      <point x="-43" y="723" type="curve" smooth="yes"/>
      <point x="-43" y="795"/>
      <point x="10" y="847"/>
      <point x="89" y="847" type="curve" smooth="yes"/>
      <point x="170" y="847"/>
      <point x="224" y="795"/>
      <point x="224" y="723" type="curve" smooth="yes"/>
      <point x="224" y="648"/>
      <point x="170" y="594"/>
    </contour>
  </outline>
</glyph>
<glyph name="t.alt" format="2">
  <advance width="336"/>
  <outline>
    <contour>
      <point x="204" y="333" type="curve" smooth="yes"/>
      <point x="165" y="333"/>
      <point x="142" y="352"/>
      <point x="128" y="375" type="curve" smooth="yes"/>
      <point x="128" y="376"/>
      <point x="78" y="358"/>
      <point x="73" y="356" type="curve" smooth="yes"/>
      <point x="36" y="341"/>
      <point x="9" y="333"/>
      <point x="-18" y="333" type="curve" smooth="yes"/>
      <point x="-85" y="333"/>
      <point x="-85" y="423"/>
      <point x="-18" y="423" type="curve" smooth="yes"/>
      <point x="-3" y="423"/>
      <point x="19" y="431"/>
      <point x="39" y="440" type="curve" smooth="yes"/>
      <point x="137" y="480"/>
      <point x="184" y="457"/>
      <point x="206" y="421" type="curve" smooth="yes"/>
      <point x="206" y="420"/>
      <point x="202" y="423"/>
      <point x="204" y="423" type="curve" smooth="yes"/>
      <point x="272" y="423"/>
      <point x="272" y="333"/>
    </contour>
    <contour>
      <point x="222" y="-105" type="curve" smooth="yes"/>
      <point x="112" y="-159"/>
      <point x="-2" y="-108"/>
      <point x="-2" y="19" type="curve" smooth="yes"/>
      <point x="-2" y="183"/>
      <point x="-2" y="245"/>
      <point x="-2" y="343" type="curve" smooth="yes"/>
      <point x="-2" y="397"/>
      <point x="1" y="440"/>
      <point x="12" y="490" type="curve" smooth="yes"/>
      <point x="26" y="556"/>
      <point x="114" y="538"/>
      <point x="100" y="472" type="curve" smooth="yes"/>
      <point x="91" y="428"/>
      <point x="88" y="391"/>
      <point x="88" y="343" type="curve" smooth="yes"/>
      <point x="88" y="197"/>
      <point x="88" y="129"/>
      <point x="88" y="19" type="curve" smooth="yes"/>
      <point x="88" y="-39"/>
      <point x="132" y="-49"/>
      <point x="182" y="-25" type="curve" smooth="yes"/>
      <point x="243" y="5"/>
      <point x="282" y="-76"/>
    </contour>
  </outline>
</glyph>
